# xmcd CD database file
#
# Track frame offsets:
#	150
#	33841
#	46835
#	59381
#	77873
#	106305
#	121083
#	140038
#	154775
#	173660
#	190249
#
# Disc length: 2748 seconds
#
# Revision: 0
# Processed by: cddbd v1.5.2PL0 Copyright (c) Steve Scherf et al.
# Submitted via: CDex 1.51
#
DISCID=8a0aba0b
DTITLE=David Egan - You Don't Know Your Mind
DYEAR=1900
DGENRE=Blues
TTITLE0=You Don't Know Your Mind
TTITLE1=Your're Lyin' Again
TTITLE2=If It Is What It Is (It's Love)
TTITLE3=Bourbon In My Cup
TTITLE4=Love, Honor and Obey
TTITLE5=Money's Farm
TTITLE6=Small Fry
TTITLE7=Best Of Love Turned Blue
TTITLE8=Sing It
TTITLE9=Proud Dog
TTITLE10=Smile
EXTD=
EXTT0=
EXTT1=
EXTT2=
EXTT3=
EXTT4=
EXTT5=
EXTT6=
EXTT7=
EXTT8=
EXTT9=
EXTT10=
PLAYORDER=
